<?xml version="1.0" encoding="UTF-8" standalone="no"?>
<!DOCTYPE svg PUBLIC "-//W3C//DTD SVG 1.1//EN" "http://www.w3.org/Graphics/SVG/1.1/DTD/svg11.dtd">
<svg width="100%" height="100%" viewBox="0 0 43 43" version="1.1" xmlns="http://www.w3.org/2000/svg" xmlns:xlink="http://www.w3.org/1999/xlink" xml:space="preserve" xmlns:serif="http://www.serif.com/" style="fill-rule:evenodd;clip-rule:evenodd;stroke-linejoin:round;stroke-miterlimit:2;">
    <g id="S-W-Knallt-NavBar" serif:id="S/W Knallt NavBar" transform="matrix(0.003355,0,0,0.003354,0,0)">
        <rect x="-1766.67" y="-1033.33" width="54016.7" height="14886.4" style="fill:none;"/>
    </g>
    <g transform="matrix(0.003355,0,0,0.003354,0,0)">
        <path d="M5947.17,3031.56C5947.17,3031.56 10056.45,2498.856 10907.42,2403.406C10959.686,2397.544 11038.845,2417.331 11087.849,2453.11C11136.849,2488.885 11189.274,2553.152 11201.424,2618.069C11260.528,2933.827 11499.228,4334.819 11445.565,4371.459C11215.482,4528.597 10542.103,4942.293 10667.557,5861.999C10807.932,6891.059 11706.567,7053.949 11808.807,7140.349C11893.053,7211.532 12040.27,8795.539 12038.261,8871.219C12036.407,8940.969 11992.957,9024.365 11966.111,9050.928C11930.732,9085.94 11861.465,9128.915 11808.682,9146.169C11580.257,9220.844 6812.262,9831.228 6812.262,9831.228L5947.167,3031.558L5947.167,3031.562L5947.17,3031.56ZM5947.17,3031.56C5947.17,3031.56 1835.16,3542.744 987.34,3663.002C935.265,3670.389 863.561,3709.331 825.057,3756.219C786.553,3803.106 751.853,3878.435 756.311,3944.331C777.999,4264.839 897.007,5681.021 958.119,5703.101C1220.178,5797.747 1975.579,6030.026 2083.959,6951.901C2205.221,7983.391 1375.813,8365.701 1298.405,8474.901C1234.626,8564.88 1487.951,10135.411 1508.813,10208.181C1528.038,10275.256 1590.951,10345.148 1623.584,10364.16C1666.592,10389.219 1744.401,10413.519 1799.817,10417.035C2039.659,10432.248 6808.897,9831.652 6808.897,9831.652L5947.18,3031.572L5947.172,3031.563L5947.17,3031.56Z" style="fill:rgb(248,248,248);"/>
        <path d="M5870.62,2428.76C5961.999,2416.915 9996.6,1894.119 10839.7,1799.556L11155.992,1825.669L11446.171,1962.356L11575.413,2077.102L11685.925,2220.744L11798.7,2506.273C11855.35,2808.919 12060.925,4048.603 12061.017,4321.793L12047.979,4472.23L11998.984,4624.822L11911.988,4761.263L11788.271,4873.247C11645.338,4970.863 11191.696,5208.543 11269.634,5779.876C11338.642,6285.772 11720.63,6438.609 11896.925,6511.651L12200.996,6676.218L12368.15,6895.393C12394.313,6950.509 12433.375,7068.393 12463.071,7231.78C12550.384,7712.234 12647.434,8821.9 12645.696,8887.36L12625.667,9046.564L12567.88,9221.693L12393.525,9482.843L12210.255,9624.022L11997.5,9723.735C11763.909,9800.098 6889.42,10433.952 6889.42,10433.952L6887.112,10434.243L6884.803,10434.539C6884.803,10434.539 2006.593,11039.022 1761.343,11023.46L1530.422,10980.085L1317.681,10889.193L1083.597,10679.902L983.872,10524.772L924.693,10375.622C906.647,10312.677 723.293,9213.972 687.764,8726.952C675.681,8561.323 684.043,8437.423 695.601,8377.515L802.672,8123.519L1055.968,7888.182C1208.414,7773.398 1540.085,7529.944 1480.472,7022.857C1413.143,6450.173 914.501,6333.411 751.706,6274.615L603.931,6197.107L485.593,6086.732L400.014,5951.232L349.797,5808.823C281.61,5544.286 170.843,4292.563 150.056,3985.363L187.893,3680.713L259.001,3514.009L355.464,3370.604L602.276,3165.734L902.006,3061.4C1741.976,2942.259 5779.216,2440.146 5870.626,2428.775L5870.613,2428.775L5870.62,2428.76ZM5947.162,3031.56L6812.258,9831.23C6812.258,9831.23 11580.258,9220.847 11808.678,9146.172C11861.461,9128.917 11930.728,9085.942 11966.107,9050.93C11992.953,9024.367 12036.403,8940.972 12038.257,8871.222C12040.266,8795.542 11893.049,7211.542 11808.803,7140.352C11706.566,7053.96 10807.923,6891.064 10667.553,5862.002C10542.099,4942.294 11215.478,4528.602 11445.561,4371.462C11499.224,4334.817 11260.524,2933.832 11201.42,2618.072C11189.27,2553.155 11136.845,2488.888 11087.845,2453.113C11038.841,2417.334 10959.682,2397.547 10907.416,2403.409C10056.437,2498.859 5947.166,3031.563 5947.166,3031.563L5947.166,3031.559L5947.162,3031.56ZM5947.162,3031.56C5947.162,3031.56 1835.152,3542.744 987.332,3663.002C935.257,3670.389 863.553,3709.331 825.049,3756.219C786.545,3803.106 751.845,3878.435 756.303,3944.331C777.991,4264.839 896.999,5681.021 958.112,5703.101C1220.17,5797.747 1975.572,6030.026 2083.952,6951.901C2205.215,7983.391 1375.806,8365.701 1298.398,8474.901C1234.619,8564.88 1487.944,10135.411 1508.806,10208.181C1528.031,10275.256 1590.944,10345.148 1623.577,10364.16C1666.585,10389.219 1744.394,10413.519 1799.81,10417.035C2039.652,10432.248 6808.89,9831.652 6808.89,9831.652L5947.173,3031.572L5947.165,3031.563L5947.162,3031.56Z" style="fill:rgb(26,26,26);"/>
        <path d="M6242.08,5358.67C5837.718,4983.907 5432.826,4729.465 4965.36,4814.478C4446.156,4908.903 4156.723,5271.399 4106.502,5683.932C4063.66,6035.882 4138.985,6360.949 4349.385,6645.153C4708.056,7129.645 4981.935,7348.678 5493.205,7704.553C6027.659,8076.561 6223.776,8135.29 6620.765,8316.89L6242.077,5358.67L6242.08,5358.67ZM6248.126,5357.903C6545.993,4893.974 6874.447,4546.416 7348.326,4511.903C7874.651,4473.57 8245.497,4752.232 8397.226,5139.124C8526.668,5469.199 8534.972,5802.774 8402.276,6130.545C8176.072,6689.295 7965.626,6969.828 7559.518,7442.175C7134.993,7935.95 6959.776,8041.829 6620.768,8316.883L6248.126,5357.903Z" style="fill:rgb(224,16,53);"/>
        <path d="M6134.29,4485.54C6463.369,4139.585 6843.915,3921.994 7302.94,3888.56C8148.489,3826.981 8735.34,4289.402 8979.09,4910.95C9168.945,5395.071 9176.236,5884.346 8981.616,6365.09C8726.032,6996.403 8492.295,7315.957 8033.453,7849.65C7572.02,8386.354 7383.141,8503.208 7014.703,8802.133L7014.566,8802.246C7006.949,8808.425 6999.186,8814.425 6991.286,8820.241C6817.007,8948.546 6588.641,8977.546 6387.824,8896.866C6378.72,8893.208 6369.707,8889.337 6360.786,8885.258L6360.624,8885.183C5929.174,8687.825 5717.082,8621.883 5136.164,8217.533C4558.498,7815.446 4252.318,7564.45 3847.064,7017.043C3538.473,6600.197 3423.252,6124.626 3486.094,5608.423C3566.769,4945.685 4019.431,4351.273 4853.534,4199.583C5306.343,4117.233 5729.197,4232.816 6134.294,4485.55L6134.29,4485.54ZM6620.773,8316.89C6959.781,8041.836 7134.998,7935.956 7559.523,7442.181C7965.631,6969.831 8176.077,6689.298 8402.281,6130.551C8534.977,5802.78 8526.673,5469.205 8397.231,5139.13C8245.506,4752.239 7874.66,4473.576 7348.331,4511.909C6874.448,4546.422 6545.994,4893.98 6248.131,5357.91L6620.773,8316.89ZM6620.773,8316.89L6242.085,5358.67C5837.723,4983.908 5432.831,4729.466 4965.365,4814.478C4446.16,4908.904 4156.727,5271.399 4106.506,5683.933C4063.665,6035.883 4138.99,6360.949 4349.39,6645.154C4708.06,7129.645 4981.94,7348.678 5493.21,7704.544C6027.665,8076.553 6223.781,8135.282 6620.77,8316.882L6620.773,8316.89Z" style="fill:rgb(26,26,26);"/>
    </g>
</svg>
