<?xml version="1.0" encoding="UTF-8" standalone="no"?><!DOCTYPE svg PUBLIC "-//W3C//DTD SVG 1.1//EN" "http://www.w3.org/Graphics/SVG/1.1/DTD/svg11.dtd"><svg width="100%" height="100%" viewBox="0 0 12817 12821" version="1.1" xmlns="http://www.w3.org/2000/svg" xmlns:xlink="http://www.w3.org/1999/xlink" xml:space="preserve" xmlns:serif="http://www.serif.com/" style="fill-rule:evenodd;clip-rule:evenodd;stroke-linejoin:round;stroke-miterlimit:2;"><rect id="S-W-Knallt-NavBar" serif:id="S/W Knallt NavBar" x="-1766.67" y="-1033.33" width="54016.7" height="14886.4" style="fill:none;"/><g><path d="M5947.17,3031.56c-0,0 4109.28,-532.704 4960.25,-628.154c52.266,-5.862 131.425,13.925 180.429,49.704c49,35.775 101.425,100.042 113.575,164.959c59.104,315.758 297.804,1716.75 244.141,1753.39c-230.083,157.138 -903.462,570.834 -778.008,1490.54c140.375,1029.06 1039.01,1191.95 1141.25,1278.35c84.246,71.183 231.463,1655.19 229.454,1730.87c-1.854,69.75 -45.304,153.146 -72.15,179.709c-35.379,35.012 -104.646,77.987 -157.429,95.241c-228.425,74.675 -4996.42,685.059 -4996.42,685.059l-865.095,-6799.67l-0,0.004Zm-0,0c-0,0 -4112.01,511.184 -4959.83,631.442c-52.075,7.387 -123.779,46.329 -162.283,93.217c-38.504,46.887 -73.204,122.216 -68.746,188.112c21.688,320.508 140.696,1736.69 201.808,1758.77c262.059,94.646 1017.46,326.925 1125.84,1248.8c121.262,1031.49 -708.146,1413.8 -785.554,1523c-63.779,89.979 189.546,1660.51 210.408,1733.28c19.225,67.075 82.138,136.967 114.771,155.979c43.008,25.059 120.817,49.359 176.233,52.875c239.842,15.213 5009.08,-585.383 5009.08,-585.383l-861.717,-6800.08l-0.008,-0.009Z" style="fill:#f8f8f8;"/><path d="M5870.62,2428.76c91.379,-11.845 4125.98,-534.641 4969.08,-629.204l316.292,26.113l290.179,136.687l129.242,114.746l110.512,143.642l112.775,285.529c56.65,302.646 262.225,1542.33 262.317,1815.52l-13.038,150.437l-48.995,152.592l-86.996,136.441l-123.717,111.984c-142.933,97.616 -596.575,335.296 -518.637,906.629c69.008,505.896 450.996,658.733 627.291,731.775l304.071,164.567l167.154,219.175c26.163,55.116 65.225,173 94.921,336.387c87.313,480.454 184.363,1590.12 182.625,1655.58l-20.029,159.204l-57.787,175.129l-174.355,261.15l-183.27,141.179l-212.755,99.713c-233.591,76.363 -5108.08,710.217 -5108.08,710.217l-2.308,0.291l-2.309,0.296c0,0 -4878.21,604.483 -5123.46,588.921l-230.921,-43.375l-212.741,-90.892l-234.084,-209.291l-99.725,-155.13l-59.179,-149.15c-18.046,-62.945 -201.4,-1161.65 -236.929,-1648.67c-12.083,-165.629 -3.721,-289.529 7.837,-349.437l107.071,-253.996l253.296,-235.337c152.446,-114.784 484.117,-358.238 424.504,-865.325c-67.329,-572.684 -565.971,-689.446 -728.766,-748.242l-147.775,-77.508l-118.338,-110.375l-85.579,-135.5l-50.217,-142.409c-68.187,-264.537 -178.954,-1516.26 -199.741,-1823.46l37.837,-304.65l71.108,-166.704l96.463,-143.405l246.812,-204.87l299.73,-104.334c839.97,-119.141 4877.21,-621.254 4968.62,-632.625l-0.013,0Zm76.542,602.8l865.096,6799.67c-0,-0 4768,-610.383 4996.42,-685.058c52.783,-17.255 122.05,-60.23 157.429,-95.242c26.846,-26.563 70.296,-109.958 72.15,-179.708c2.009,-75.68 -145.208,-1659.68 -229.454,-1730.87c-102.237,-86.392 -1000.88,-249.288 -1141.25,-1278.35c-125.454,-919.708 547.925,-1333.4 778.008,-1490.54c53.663,-36.645 -185.037,-1437.63 -244.141,-1753.39c-12.15,-64.917 -64.575,-129.184 -113.575,-164.959c-49.004,-35.779 -128.163,-55.566 -180.429,-49.704c-850.979,95.45 -4960.25,628.154 -4960.25,628.154l-0,-0.004Zm-0,0c-0,0 -4112.01,511.184 -4959.83,631.442c-52.075,7.387 -123.779,46.329 -162.283,93.217c-38.504,46.887 -73.204,122.216 -68.746,188.112c21.688,320.508 140.696,1736.69 201.809,1758.77c262.058,94.646 1017.46,326.925 1125.84,1248.8c121.263,1031.49 -708.146,1413.8 -785.554,1523c-63.779,89.979 189.546,1660.51 210.408,1733.28c19.225,67.075 82.138,136.967 114.771,155.979c43.008,25.059 120.817,49.359 176.233,52.875c239.842,15.213 5009.08,-585.383 5009.08,-585.383l-861.717,-6800.08l-0.008,-0.009Z" style="fill:#1a1a1a;"/><path d="M6242.08,5358.67c-404.362,-374.763 -809.254,-629.205 -1276.72,-544.192c-519.204,94.425 -808.637,456.921 -858.858,869.454c-42.842,351.95 32.483,677.017 242.883,961.221c358.671,484.492 632.55,703.525 1143.82,1059.4c534.454,372.008 730.571,430.737 1127.56,612.337l-378.688,-2958.22Zm6.046,-0.767c297.867,-463.929 626.321,-811.487 1100.2,-846c526.325,-38.333 897.171,240.329 1048.9,627.221c129.442,330.075 137.746,663.65 5.05,991.421c-226.204,558.75 -436.65,839.283 -842.758,1311.63c-424.525,493.775 -599.742,599.654 -938.75,874.708l-372.642,-2958.98Z" style="fill:#e01035;"/><path d="M6134.29,4485.54c329.079,-345.955 709.625,-563.546 1168.65,-596.98c845.549,-61.579 1432.4,400.842 1676.15,1022.39c189.855,484.121 197.146,973.396 2.526,1454.14c-255.584,631.313 -489.321,950.867 -948.163,1484.56c-461.433,536.704 -650.312,653.558 -1018.75,952.483l-0.137,0.113c-7.617,6.179 -15.38,12.179 -23.28,17.995c-174.279,128.305 -402.645,157.305 -603.462,76.625c-9.104,-3.658 -18.117,-7.529 -27.038,-11.608l-0.162,-0.075c-431.45,-197.358 -643.542,-263.3 -1224.46,-667.65c-577.666,-402.087 -883.846,-653.083 -1289.1,-1200.49c-308.591,-416.846 -423.812,-892.417 -360.97,-1408.62c80.675,-662.738 533.337,-1257.15 1367.44,-1408.84c452.809,-82.35 875.663,33.233 1280.76,285.967Zm486.483,3831.35c339.008,-275.054 514.225,-380.934 938.75,-874.709c406.108,-472.35 616.554,-752.883 842.758,-1311.63c132.696,-327.771 124.392,-661.346 -5.05,-991.421c-151.725,-386.891 -522.571,-665.554 -1048.9,-627.221c-473.883,34.513 -802.337,382.071 -1100.2,846.001l372.642,2958.98Zm-0,-0l-378.688,-2958.22c-404.362,-374.762 -809.254,-629.204 -1276.72,-544.192c-519.205,94.426 -808.638,456.921 -858.859,869.455c-42.841,351.95 32.484,677.016 242.884,961.221c358.67,484.491 632.55,703.524 1143.82,1059.39c534.455,372.009 730.571,430.738 1127.56,612.338Z" style="fill:#1a1a1a;"/></g></svg>